<?xml version="1.0" encoding="UTF-8"?>
<!DOCTYPE svg PUBLIC "-//W3C//DTD SVG 1.1//EN" "http://www.w3.org/Graphics/SVG/1.1/DTD/svg11.dtd">
<!-- Creator: CorelDRAW X6 -->
<svg xmlns="http://www.w3.org/2000/svg" xml:space="preserve" width="24in" height="12in" version="1.1" style="shape-rendering:geometricPrecision; text-rendering:geometricPrecision; image-rendering:optimizeQuality; fill-rule:evenodd; clip-rule:evenodd"
viewBox="0 0 24000 12000"
 xmlns:xlink="http://www.w3.org/1999/xlink">
 <defs>
  <style type="text/css">
   <![CDATA[
    .str1 {stroke:blue;stroke-width:3}
    .str0 {stroke:blue;stroke-width:3}
    .fil0 {fill:none;fill-rule:nonzero}
    .fil1 {fill:black;fill-rule:nonzero}
    .fil2 {fill:blue;fill-rule:nonzero}
   ]]>
  </style>
 </defs>
 <g id="Layer_x0020_1">
  <metadata id="CorelCorpID_0Corel-Layer"/>
  <path class="fil0 str0" d="M84 3830l0 -3499c0,-138 112,-250 250,-250l4749 0c139,0 250,111 250,250l0 3499c0,138 -111,250 -250,250l-4749 0c-138,0 -250,-112 -250,-250zm0 0z"/>
  <polygon class="fil0 str0" points="601,3469 601,655 1644,655 1644,3469 "/>
  <g>
   <path class="fil0 str1" d="M332 3765c31,0 56,25 56,56 0,31 -25,56 -56,56 -31,0 -57,-25 -57,-56 0,-31 25,-56 57,-56zm0 0z"/>
  </g>
  <g>
   <path class="fil0 str1" d="M333 277c31,0 56,25 56,56 0,31 -25,56 -56,56 -31,0 -56,-25 -56,-56 0,-31 25,-56 56,-56zm0 0z"/>
  </g>
  <g>
   <path class="fil0 str1" d="M5082 3765c31,0 57,25 57,56 0,31 -25,56 -57,56 -31,0 -57,-25 -57,-56 0,-31 25,-56 57,-56zm0 0z"/>
  </g>
  <g>
   <path class="fil0 str1" d="M5082 277c31,0 56,25 56,56 0,31 -25,56 -56,56 -31,0 -56,-25 -56,-56 0,-31 25,-56 56,-56zm0 0z"/>
  </g>
  <polygon class="fil0 str0" points="5025,2580 5025,1581 5138,1581 5138,2580 "/>
  <polygon class="fil1" points="391,2855 391,2781 428,2781 428,2892 243,2892 243,2855 "/>
  <path class="fil1" d="M243 2669l0 -74 37 0m111 74l0 -74 37 0m-148 0l0 -37 111 0m-111 111l111 0m-111 -74l0 74 -37 0m148 0l0 37 -111 0 0 -37m148 -74l0 74 -37 0m37 0l0 0zm-37 -111l0 37 -111 0 111 -37z"/>
  <polygon class="fil1" points="391,2447 391,2373 428,2373 428,2484 243,2484 243,2447 "/>
  <path class="fil1" d="M280 2262l111 0 0 -74 37 0 0 111m-148 -111l0 -37m148 148l-185 0 0 -111 37 0 0 74m0 -111l111 0 0 37 -111 0 0 -37z"/>
  <polygon class="fil1" points="428,2076 243,2076 243,2039 428,2039 "/>
  <path class="fil1" d="M280 1816l148 0 0 37 -74 0 0 74 74 0 0 37m-148 -37l0 -74 -37 0 0 74m185 37l-148 0 0 -37 37 0 0 -74 -37 0 0 -37m-37 111l37 0 -37 0z"/>
  <polygon class="fil1" points="391,1706 391,1632 428,1632 428,1743 243,1743 243,1706 "/>
  <path class="fil1" d="M243 1446l37 0m148 0l0 111 -185 0 0 -111m148 0l37 0m-74 0l0 74 37 0 0 -74m-74 0l37 0m-74 0l0 74 37 0 0 -74 -37 0z"/>
  <path class="fil1" d="M243 1261l37 0 0 74 37 0 0 -74 37 0 0 74 74 0 0 37m-111 -111l-37 0m111 -37l37 0 0 37 -37 0m-37 0l37 0 0 37 -37 0m74 74l-185 0 0 -111m37 0l0 -37 37 0 0 37m37 37l0 -37m37 0l0 -37 0 37z"/>
  <path class="fil0 str0" d="M90 7968l0 -3499c0,-139 111,-250 250,-250l4749 0c138,0 250,111 250,250l0 3499c0,138 -112,250 -250,250l-4749 0c-138,0 -250,-111 -250,-250zm0 0z"/>
  <g>
   <path class="fil2" d="M296 7990l-3 0 0 0 0 -3 0 -3 0 -3 0 -3 -1 -3 -1 -3 -1 -3 -1 -2 -1 -2 -1 -2 -1 -2 -1 -2 -2 -2 -2 -2 -2 -2 -2 -2 -2 -2 -2 -2 -2 -2 -2 -2 -2 -1 -2 -1 -2 -1 -2 -1 -3 -1 -3 -1 -3 -1 -3 -1 -3 0 -3 0 -3 0 -3 0 0 -3 3 0 3 0 3 0 3 1 3 1 3 1 3 1 3 1 3 1 2 1 2 1 2 1 2 2 2 2 2 2 2 2 2 2 2 2 2 2 2 2 2 2 1 2 1 3 1 3 1 3 1 3 1 3 1 3 1 3 0 3 0 3 0 3 0 0zm-58 58l0 -3 0 0 3 0 3 0 3 0 3 0 3 -1 3 -1 3 -1 3 -1 2 -1 2 -1 2 -1 2 -1 2 -2 2 -2 2 -2 2 -2 2 -2 2 -2 2 -2 2 -2 1 -2 1 -2 1 -2 1 -2 1 -2 1 -3 1 -3 1 -3 0 -3 0 -3 0 -3 0 -3 3 0 0 3 0 3 0 3 -1 3 -1 3 -1 3 -1 3 -1 3 -1 3 -1 3 -1 2 -2 2 -2 2 -2 2 -2 2 -2 2 -2 2 -2 2 -2 2 -2 2 -2 1 -2 1 -2 1 -3 1 -3 1 -3 1 -3 1 -3 1 -3 1 -3 0 -3 0 -3 0 0 0zm-58 -58l3 0 0 0 0 3 0 3 0 3 0 3 1 3 1 3 1 3 1 2 1 2 1 2 1 2 1 2 2 2 2 2 2 2 2 2 2 2 2 2 2 2 2 2 2 1 2 1 2 1 2 1 3 1 3 1 3 1 3 1 3 0 3 0 3 0 3 0 0 3 -3 0 -3 0 -3 0 -3 -1 -3 -1 -3 -1 -3 -1 -3 -1 -3 -1 -2 -1 -2 -1 -2 -1 -2 -2 -2 -2 -2 -2 -2 -2 -2 -2 -2 -2 -2 -2 -2 -2 -2 -2 -1 -2 -1 -3 -1 -3 -1 -3 -1 -3 -1 -3 -1 -3 -1 -3 0 -3 0 -3 0 -3 0 0zm58 -58l0 3 0 0 -3 0 -3 0 -3 0 -3 0 -3 1 -3 1 -3 1 -3 1 -2 1 -2 1 -2 1 -2 1 -2 2 -2 2 -2 2 -2 2 -2 2 -2 2 -2 2 -2 2 -1 2 -1 2 -1 2 -1 2 -1 2 -1 3 -1 3 -1 3 0 3 0 3 0 3 0 3 -3 0 0 -3 0 -3 0 -3 1 -3 1 -3 1 -3 1 -3 1 -3 1 -3 1 -3 1 -2 2 -2 2 -2 2 -2 2 -2 2 -2 2 -2 2 -2 2 -2 2 -2 2 -1 2 -1 2 -1 3 -1 3 -1 3 -1 3 -1 3 -1 3 -1 3 0 3 0 3 0 0 0z"/>
  </g>
  <g>
   <path class="fil2" d="M297 4501l-3 0 0 0 0 -3 0 -3 0 -3 0 -3 -1 -3 -1 -3 -1 -3 -1 -2 -1 -2 -1 -2 -1 -2 -1 -2 -2 -2 -2 -2 -2 -2 -2 -2 -2 -2 -2 -2 -2 -2 -2 -2 -2 -1 -2 -1 -2 -1 -2 -1 -3 -1 -3 -1 -3 -1 -3 -1 -3 0 -3 0 -3 0 -3 0 0 -3 3 0 3 0 3 0 3 1 3 1 3 1 3 1 3 1 3 1 2 1 2 1 2 1 2 2 2 2 2 2 2 2 2 2 2 2 2 2 2 2 2 2 1 2 1 2 1 3 1 3 1 3 1 3 1 3 1 3 0 3 0 3 0 3 0 0zm-58 58l0 -3 0 0 3 0 3 0 3 0 3 0 3 -1 3 -1 3 -1 3 -1 2 -1 2 -1 2 -1 2 -1 2 -2 2 -2 2 -2 2 -2 2 -2 2 -2 2 -2 2 -2 1 -2 1 -2 1 -2 1 -2 1 -2 1 -3 1 -3 1 -3 0 -3 0 -3 0 -3 0 -3 3 0 0 3 0 3 0 3 -1 3 -1 3 -1 3 -1 3 -1 3 -1 3 -1 3 -1 2 -2 2 -2 2 -2 2 -2 2 -2 2 -2 2 -2 2 -2 2 -2 2 -2 1 -2 1 -2 1 -3 1 -3 1 -3 1 -3 1 -3 1 -3 1 -3 0 -3 0 -3 0 0 0zm-58 -58l3 0 0 0 0 3 0 3 0 3 0 3 1 3 1 3 1 3 1 2 1 2 1 2 1 2 1 2 2 2 2 2 2 2 2 2 2 2 2 2 2 2 2 2 2 1 2 1 2 1 2 1 3 1 3 1 3 1 3 1 3 0 3 0 3 0 3 0 0 3 -3 0 -3 0 -3 0 -3 -1 -3 -1 -3 -1 -3 -1 -3 -1 -3 -1 -2 -1 -2 -1 -2 -1 -2 -2 -2 -2 -2 -2 -2 -2 -2 -2 -2 -2 -2 -2 -2 -2 -2 -2 -1 -2 -1 -3 -1 -3 -1 -3 -1 -3 -1 -3 -1 -3 -1 -3 0 -3 0 -3 0 -3 0 0zm58 -58l0 3 0 0 -3 0 -3 0 -3 0 -3 0 -3 1 -3 1 -3 1 -3 1 -2 1 -2 1 -2 1 -2 1 -2 2 -2 2 -2 2 -2 2 -2 2 -2 2 -2 2 -2 2 -1 2 -1 2 -1 2 -1 2 -1 2 -1 3 -1 3 -1 3 0 3 0 3 0 3 0 3 -3 0 0 -3 0 -3 0 -3 1 -3 1 -3 1 -3 1 -3 1 -3 1 -3 1 -2 1 -2 2 -2 2 -2 2 -2 2 -2 2 -2 2 -2 2 -2 2 -2 2 -2 2 -1 2 -1 2 -1 3 -1 3 -1 3 -1 3 -1 3 -1 3 -1 3 0 3 0 3 0 0 0z"/>
  </g>
  <g>
   <path class="fil2" d="M5046 7990l-3 0 0 0 0 -3 0 -3 0 -3 0 -3 -1 -3 -1 -3 -1 -3 -1 -2 -1 -2 -1 -2 -1 -2 -1 -2 -2 -2 -2 -2 -2 -2 -2 -2 -2 -2 -2 -2 -2 -2 -2 -2 -2 -1 -2 -1 -2 -1 -2 -1 -3 -1 -3 -1 -3 -1 -3 -1 -3 0 -3 0 -3 0 -3 0 0 -3 3 0 3 0 3 0 3 1 3 1 3 1 3 1 3 1 3 1 2 1 2 1 2 1 2 2 2 2 2 2 2 2 2 2 2 2 2 2 2 2 2 2 1 2 1 3 1 3 1 3 1 3 1 3 1 3 1 3 0 3 0 3 0 3 0 0zm-58 58l0 -3 0 0 3 0 3 0 3 0 3 0 3 -1 3 -1 3 -1 3 -1 2 -1 2 -1 2 -1 2 -1 2 -2 2 -2 2 -2 2 -2 2 -2 2 -2 2 -2 2 -2 1 -2 1 -2 1 -2 1 -2 1 -2 1 -3 1 -3 1 -3 0 -3 0 -3 0 -3 0 -3 3 0 0 3 0 3 0 3 -1 3 -1 3 -1 3 -1 3 -1 3 -1 3 -1 3 -1 2 -2 2 -2 2 -2 2 -2 2 -2 2 -2 2 -2 2 -2 2 -2 2 -2 1 -2 1 -2 1 -3 1 -3 1 -3 1 -3 1 -3 1 -3 1 -3 0 -3 0 -3 0 0 0zm-58 -58l3 0 0 0 0 3 0 3 0 3 0 3 1 3 1 3 1 3 1 2 1 2 1 2 1 2 1 2 2 2 2 2 2 2 2 2 2 2 2 2 2 2 2 2 2 1 2 1 2 1 2 1 3 1 3 1 3 1 3 1 3 0 3 0 3 0 3 0 0 3 -3 0 -3 0 -3 0 -3 -1 -3 -1 -3 -1 -3 -1 -3 -1 -3 -1 -2 -1 -2 -1 -2 -1 -2 -2 -2 -2 -2 -2 -2 -2 -2 -2 -2 -2 -2 -2 -2 -2 -2 -2 -1 -2 -1 -3 -1 -3 -1 -3 -1 -3 -1 -3 -1 -3 -1 -3 0 -3 0 -3 0 -3 0 0zm58 -58l0 3 0 0 -3 0 -3 0 -3 0 -3 0 -3 1 -3 1 -3 1 -3 1 -2 1 -2 1 -2 1 -2 1 -2 2 -2 2 -2 2 -2 2 -2 2 -2 2 -2 2 -2 2 -1 2 -1 2 -1 2 -1 2 -1 2 -1 3 -1 3 -1 3 0 3 0 3 0 3 0 3 -3 0 0 -3 0 -3 0 -3 1 -3 1 -3 1 -3 1 -3 1 -3 1 -3 1 -3 1 -2 2 -2 2 -2 2 -2 2 -2 2 -2 2 -2 2 -2 2 -2 2 -2 2 -1 2 -1 2 -1 3 -1 3 -1 3 -1 3 -1 3 -1 3 -1 3 0 3 0 3 0 0 0z"/>
  </g>
  <g>
   <path class="fil2" d="M5046 4501l-3 0 0 0 0 -3 0 -3 0 -3 0 -3 -1 -3 -1 -3 -1 -3 -1 -2 -1 -2 -1 -2 -1 -2 -1 -2 -2 -2 -2 -2 -2 -2 -2 -2 -2 -2 -2 -2 -2 -2 -2 -2 -2 -1 -2 -1 -2 -1 -2 -1 -3 -1 -3 -1 -3 -1 -3 -1 -3 0 -3 0 -3 0 -3 0 0 -3 3 0 3 0 3 0 3 1 3 1 3 1 3 1 3 1 3 1 2 1 2 1 2 1 2 2 2 2 2 2 2 2 2 2 2 2 2 2 2 2 2 2 1 2 1 3 1 3 1 3 1 3 1 3 1 3 1 3 0 3 0 3 0 3 0 0zm-58 58l0 -3 0 0 3 0 3 0 3 0 3 0 3 -1 3 -1 3 -1 3 -1 2 -1 2 -1 2 -1 2 -1 2 -2 2 -2 2 -2 2 -2 2 -2 2 -2 2 -2 2 -2 1 -2 1 -2 1 -2 1 -2 1 -2 1 -3 1 -3 1 -3 0 -3 0 -3 0 -3 0 -3 3 0 0 3 0 3 0 3 -1 3 -1 3 -1 3 -1 3 -1 3 -1 3 -1 3 -1 2 -2 2 -2 2 -2 2 -2 2 -2 2 -2 2 -2 2 -2 2 -2 2 -2 1 -2 1 -2 1 -3 1 -3 1 -3 1 -3 1 -3 1 -3 1 -3 0 -3 0 -3 0 0 0zm-58 -58l3 0 0 0 0 3 0 3 0 3 0 3 1 3 1 3 1 3 1 2 1 2 1 2 1 2 1 2 2 2 2 2 2 2 2 2 2 2 2 2 2 2 2 2 2 1 2 1 2 1 2 1 3 1 3 1 3 1 3 1 3 0 3 0 3 0 3 0 0 3 -3 0 -3 0 -3 0 -3 -1 -3 -1 -3 -1 -3 -1 -3 -1 -3 -1 -2 -1 -2 -1 -2 -1 -2 -2 -2 -2 -2 -2 -2 -2 -2 -2 -2 -2 -2 -2 -2 -2 -2 -2 -1 -2 -1 -3 -1 -3 -1 -3 -1 -3 -1 -3 -1 -3 -1 -3 0 -3 0 -3 0 -3 0 0zm58 -58l0 3 0 0 -3 0 -3 0 -3 0 -3 0 -3 1 -3 1 -3 1 -3 1 -2 1 -2 1 -2 1 -2 1 -2 2 -2 2 -2 2 -2 2 -2 2 -2 2 -2 2 -2 2 -1 2 -1 2 -1 2 -1 2 -1 2 -1 3 -1 3 -1 3 0 3 0 3 0 3 0 3 -3 0 0 -3 0 -3 0 -3 1 -3 1 -3 1 -3 1 -3 1 -3 1 -3 1 -3 1 -2 2 -2 2 -2 2 -2 2 -2 2 -2 2 -2 2 -2 2 -2 2 -2 2 -1 2 -1 2 -1 3 -1 3 -1 3 -1 3 -1 3 -1 3 -1 3 0 3 0 3 0 0 0z"/>
  </g>
  <path class="fil1" d="M4527 6865l0 11 -11 0 0 -11 11 0zm-11 11l0 21 -11 0 0 -21 11 0zm32 -11l0 11 -11 0 0 -11 11 0zm0 32l0 11 -32 0 0 -11 32 0zm11 -21l0 21 -11 0 0 -21 11 0zm0 21l0 -21zm-21 0l21 21zm0 -53l-53 0 0 -32 11 0 0 21 11 0 0 -21 10 0 0 21 21 0 0 11zm-42 -32l0 -11 11 0 0 11 -11 0zm21 11l0 -11 11 0 0 11 -11 0zm11 -11l0 -11 11 0 0 11 -11 0zm-32 -64l0 21 11 0 0 -21 10 0 0 21 11 0 0 -21 11 0 0 32 -53 0 0 -32 11 0zm42 -21l-42 0 0 -11 11 0 0 -21 -11 0 0 -11 42 0 0 11 -21 0 0 21 21 0 0 11zm-53 -11l11 0 0 -21 -11 0 0 21zm53 -63l-42 0 0 11 -11 0 0 -32 11 0 0 11 42 0 0 10zm-42 -74l0 21 11 0 0 -21 10 0 0 21 11 0 0 -21 11 0 0 32 -53 0 0 -32 11 0zm42 -21l-53 0 0 -32 11 0 0 21 32 0 0 -21 11 0 0 32zm-42 -42l32 0 0 11 -32 0 0 -11zm0 -106l11 0 0 11 -11 0 0 -11zm21 0l11 0 0 11 -11 0 0 -11zm-21 11l0 21 11 0 0 -21 10 0 0 21 11 0 0 -21 11 0 0 32 -53 0 0 -32 11 0zm0 -64l0 -11 11 0 0 11 -11 0zm0 21l0 -10 11 0 0 10 -11 0zm42 -10l-32 0 0 -11 32 0 0 11zm-53 21l0 -11 11 0 0 11 -11 0zm0 -42l0 -11 11 0 0 11 -11 0zm53 -74l-53 0 0 -32 11 0 0 21 32 0 0 -21 11 0 0 32zm-42 -42l32 0 0 11 -32 0 0 -11zm42 -21l-42 0 0 -11 11 0 0 -21 -11 0 0 -11 42 0 0 11 -21 0 0 21 21 0 0 11zm-53 -11l11 0 0 -21 -11 0 0 21zm21 -53l-21 0 0 -11 21 0 0 11zm21 -21l0 -11 11 0 0 11 -11 0zm0 10l-21 0 0 -10 21 0 0 10zm0 -21l-21 0 0 -11 21 0 0 11zm-21 -11l-21 0 0 -11 21 0 0 11zm32 -32l-53 0 0 -11 53 0 0 11zm0 -32l-53 0 0 -32 11 0 0 21 32 0 0 -21 11 0 0 32zm-42 -42l32 0 0 11 -32 0 0 -11zm42 -64l-53 0 0 -11 21 0 0 -21 -21 0 0 -11 53 0 0 11 -21 0 0 21 21 0 0 11zm-53 -95l0 -11 42 0 0 11 -42 0zm53 0l0 21 -11 0 0 -21 11 0zm-53 32l0 -11 42 0 0 11 -42 0zm11 -95l0 21 11 0 0 -21 10 0 0 21 11 0 0 -21 11 0 0 32 -53 0 0 -32 11 0zm42 -21l-53 0 0 -32 11 0 0 21 11 0 0 -21 10 0 0 21 21 0 0 11zm-42 -32l0 -11 11 0 0 11 -11 0zm21 11l0 -11 11 0 0 11 -11 0zm11 -11l0 -11 11 0 0 11 -11 0zm11 -42l-42 0 0 11 -11 0 0 -32 11 0 0 11 42 0 0 10zm0 -43l-42 0 0 -11 11 0 0 -21 -11 0 0 -11 42 0 0 11 -21 0 0 21 21 0 0 11zm-53 -11l11 0 0 -21 -11 0 0 21zm0 0z"/>
  <path class="fil1" d="M4627 6351l0 -11 11 0 0 11 -11 0zm42 -11l-53 0 0 -10 53 0 0 10zm0 -21l-53 0 0 -11 53 0 0 11zm-42 11l0 -11 11 0 0 11 -11 0zm0 -21l0 -11 11 0 0 11 -11 0zm21 42l0 -11 11 0 0 11 -11 0zm0 -21l0 -11 11 0 0 11 -11 0zm0 -21l0 -11 11 0 0 11 -11 0zm-21 -32l0 -11 11 0 0 11 -11 0zm42 -11l-53 0 0 -10 53 0 0 10zm0 -21l-53 0 0 -11 53 0 0 11zm-42 11l0 -11 11 0 0 11 -11 0zm0 -21l0 -11 11 0 0 11 -11 0zm21 42l0 -11 11 0 0 11 -11 0zm0 -21l0 -11 11 0 0 11 -11 0zm0 -21l0 -11 11 0 0 11 -11 0zm-21 -32l0 -11 11 0 0 11 -11 0zm42 -11l-53 0 0 -10 53 0 0 10zm0 -21l-53 0 0 -11 53 0 0 11zm-42 11l0 -11 11 0 0 11 -11 0zm0 -21l0 -11 11 0 0 11 -11 0zm21 42l0 -11 11 0 0 11 -11 0zm0 -21l0 -11 11 0 0 11 -11 0zm0 -21l0 -11 11 0 0 11 -11 0zm0 0z"/>
  <path class="fil1" d="M4781 8013l-11 0 0 -32 11 0 0 32zm-42 -11l-11 0 0 -32 11 0 0 32zm21 0l0 -21 -10 0 0 21 10 0zm0 -21l0 -11 11 0 0 11 -11 0zm-21 32l0 -11 11 0 0 11 -11 0zm0 -95l0 21 -11 0 0 -21 11 0zm32 21l0 11 -32 0 0 -11 32 0zm11 -21l0 21 -11 0 0 -21 11 0zm0 21l0 -21zm-11 -11l0 11 -32 0 0 -11 32 0zm-42 -53l0 -11 42 0 0 11 -42 0zm53 0l0 21 -11 0 0 -21 11 0zm-53 32l0 -11 42 0 0 11 -42 0zm53 -64l-53 0 0 -32 11 0 0 21 11 0 0 -21 10 0 0 21 21 0 0 11zm-42 -32l0 -11 11 0 0 11 -11 0zm21 11l0 -11 11 0 0 11 -11 0zm11 -11l0 -11 11 0 0 11 -11 0zm-21 -74l0 11 -11 0 0 -11 11 0zm-11 11l0 21 -11 0 0 -21 11 0zm32 -11l0 11 -11 0 0 -11 11 0zm0 32l0 11 -32 0 0 -11 32 0zm11 -21l0 21 -11 0 0 -21 11 0zm0 21l0 -21zm-21 0l21 21zm-42 -85l0 21 11 0 0 -21 10 0 0 21 11 0 0 -21 11 0 0 32 -53 0 0 -32 11 0zm11 -106l0 11 -11 0 0 -11 11 0zm-11 11l0 21 -11 0 0 -21 11 0zm32 -11l0 11 -11 0 0 -11 11 0zm0 32l0 11 -32 0 0 -11 32 0zm11 -21l0 21 -11 0 0 -21 11 0zm0 21l0 -21zm-21 0l21 21zm-42 -85l0 21 -11 0 0 -21 11 0zm32 21l0 11 -32 0 0 -11 32 0zm11 -21l0 21 -11 0 0 -21 11 0zm0 21l0 -21zm-11 -11l0 11 -32 0 0 -11 32 0zm11 -21l-53 0 0 -32 11 0 0 21 32 0 0 -21 11 0 0 32zm-42 -42l32 0 0 11 -32 0 0 -11zm0 -53l0 21 11 0 0 -21 10 0 0 21 11 0 0 -21 11 0 0 32 -53 0 0 -32 11 0zm42 -64l-42 0 0 -11 11 0 0 -21 -11 0 0 -11 42 0 0 11 -21 0 0 21 21 0 0 11zm-53 -11l11 0 0 -21 -11 0 0 21zm21 -53l-21 0 0 -11 21 0 0 11zm21 -21l0 -11 11 0 0 11 -11 0zm0 10l-21 0 0 -10 21 0 0 10zm0 -21l-21 0 0 -11 21 0 0 11zm-21 -11l-21 0 0 -11 21 0 0 11zm32 -32l-42 0 0 -11 11 0 0 -21 -11 0 0 -11 42 0 0 11 -21 0 0 21 21 0 0 11zm-53 -11l11 0 0 -21 -11 0 0 21zm53 -53l-53 0 0 -11 53 0 0 11zm-11 -42l0 -21 11 0 0 32 -53 0 0 -11 42 0zm11 -43l-42 0 0 -11 11 0 0 -21 -11 0 0 -11 42 0 0 11 -21 0 0 21 21 0 0 11zm-53 -11l11 0 0 -21 -11 0 0 21zm11 -95l11 0 0 11 -11 0 0 -11zm21 0l11 0 0 11 -11 0 0 -11zm-21 11l0 21 11 0 0 -21 10 0 0 21 11 0 0 -21 11 0 0 32 -53 0 0 -32 11 0zm32 -42l0 -21 11 0 0 32 -53 0 0 -11 42 0zm-32 -74l0 21 11 0 0 -21 10 0 0 21 11 0 0 -21 11 0 0 32 -53 0 0 -32 11 0zm42 -64l-42 0 0 -11 11 0 0 -21 -11 0 0 -11 42 0 0 11 -21 0 0 21 21 0 0 11zm-53 -11l11 0 0 -21 -11 0 0 21zm53 -63l-42 0 0 11 -11 0 0 -32 11 0 0 11 42 0 0 10zm0 -85l-53 0 0 -11 21 0 0 -21 -21 0 0 -11 53 0 0 11 -21 0 0 21 21 0 0 11zm0 -74l-42 0 0 11 -11 0 0 -32 11 0 0 11 42 0 0 10zm0 -53l-42 0 0 11 -11 0 0 -32 11 0 0 11 42 0 0 10zm0 -42l-53 0 0 -32 11 0 0 21 11 0 0 -21 10 0 0 21 21 0 0 11zm-42 -32l0 -11 11 0 0 11 -11 0zm42 -32l-11 0 0 -32 11 0 0 32zm-42 -11l-11 0 0 -32 11 0 0 32zm21 0l0 -21 -10 0 0 21 10 0zm0 -21l0 -11 11 0 0 11 -11 0zm-21 32l0 -11 11 0 0 11 -11 0zm21 -53l0 -11 11 0 0 11 -11 0zm-21 0l0 -11 11 0 0 11 -11 0zm11 -63l0 11 -21 0 0 -11 21 0zm10 11l0 10 -10 0 0 -10 10 0zm21 10l0 11 -21 0 0 -11 21 0zm-32 -74l0 11 -21 0 0 -11 21 0zm10 11l0 10 -10 0 0 -10 10 0zm21 10l0 11 -21 0 0 -11 21 0zm-42 -85l0 32 -11 0 0 -32 11 0zm32 32l0 11 -32 0 0 -11 32 0zm11 -21l0 21 -11 0 0 -21 11 0zm0 21l0 -21zm-21 0l0 11 -10 0 0 -21 21 0 0 11 -11 0zm21 -32l-53 0 0 -11 53 0 0 11zm0 -42l-42 0 0 11 -11 0 0 -32 11 0 0 11 42 0 0 10zm0 -42l-53 0 0 -11 21 0 0 -21 -21 0 0 -11 53 0 0 11 -21 0 0 21 21 0 0 11zm-53 -95l0 -11 42 0 0 11 -42 0zm53 0l0 21 -11 0 0 -21 11 0zm-53 32l0 -11 42 0 0 11 -42 0zm11 -106l11 0 0 11 -11 0 0 -11zm21 0l11 0 0 11 -11 0 0 -11zm-21 11l0 21 11 0 0 -21 10 0 0 21 11 0 0 -21 11 0 0 32 -53 0 0 -32 11 0zm32 -21l0 -11 11 0 0 11 -11 0zm-21 -74l0 11 -11 0 0 -11 11 0zm-11 11l0 21 -11 0 0 -21 11 0zm32 -11l0 11 -11 0 0 -11 11 0zm0 32l0 11 -32 0 0 -11 32 0zm11 -21l0 21 -11 0 0 -21 11 0zm0 21l0 -21zm-21 0l21 21zm-42 -85l0 21 -11 0 0 -21 11 0zm32 21l0 11 -32 0 0 -11 32 0zm11 -21l0 21 -11 0 0 -21 11 0zm0 21l0 -21zm-11 -11l0 11 -32 0 0 -11 32 0zm11 -21l-53 0 0 -11 53 0 0 11zm0 -42l-53 0 0 -11 53 0 0 11zm-42 11l0 -11 11 0 0 11 -11 0zm11 11l0 -11 10 0 0 11 -10 0zm-11 10l0 -10 11 0 0 10 -11 0zm11 -95l0 11 -21 0 0 -11 21 0zm10 11l0 10 -10 0 0 -10 10 0zm21 10l0 11 -21 0 0 -11 21 0zm0 -42l-53 0 0 -11 21 0 0 -21 -21 0 0 -11 53 0 0 11 -21 0 0 21 21 0 0 11zm-53 -95l0 -11 42 0 0 11 -42 0zm53 0l0 21 -11 0 0 -21 11 0zm-53 32l0 -11 42 0 0 11 -42 0zm11 -95l0 21 11 0 0 -21 10 0 0 21 11 0 0 -21 11 0 0 32 -53 0 0 -32 11 0zm42 -21l-53 0 0 -32 11 0 0 21 11 0 0 -21 10 0 0 21 21 0 0 11zm-42 -32l0 -11 11 0 0 11 -11 0zm21 11l0 -11 11 0 0 11 -11 0zm11 -11l0 -11 11 0 0 11 -11 0zm11 -42l-42 0 0 11 -11 0 0 -32 11 0 0 11 42 0 0 10zm0 -43l-42 0 0 -11 11 0 0 -21 -11 0 0 -11 42 0 0 11 -21 0 0 21 21 0 0 11zm-53 -11l11 0 0 -21 -11 0 0 21zm53 -53l-53 0 0 -11 53 0 0 11zm0 -42l-53 0 0 -11 53 0 0 11zm-21 11l0 -11 11 0 0 11 -11 0zm-10 11l0 -11 10 0 0 11 -10 0zm-11 10l0 -10 11 0 0 10 -11 0zm42 -64l-53 0 0 -11 53 0 0 11zm-11 -32l0 -11 11 0 0 11 -11 0zm-11 -11l0 -10 11 0 0 10 -11 0zm-10 -10l0 -11 10 0 0 11 -10 0zm-11 -11l0 -11 11 0 0 11 -11 0zm-11 -11l0 -11 11 0 0 11 -11 0zm11 32l0 -10 11 0 0 10 -11 0zm-11 11l0 -11 11 0 0 11 -11 0zm32 -32l0 -11 11 0 0 11 -11 0zm11 -11l0 -11 11 0 0 11 -11 0zm-21 -64l0 11 -21 0 0 -11 21 0zm10 11l0 10 -10 0 0 -10 10 0zm21 10l0 11 -21 0 0 -11 21 0zm-11 -53l0 -21 11 0 0 32 -53 0 0 -11 42 0zm-32 -74l0 21 -11 0 0 -21 11 0zm32 21l0 11 -32 0 0 -11 32 0zm11 -21l0 21 -11 0 0 -21 11 0zm0 21l0 -21zm-11 -11l0 11 -32 0 0 -11 32 0zm0 -32l0 -21 11 0 0 32 -53 0 0 -11 42 0zm11 -42l-53 0 0 -32 11 0 0 21 32 0 0 -21 11 0 0 32zm-42 -42l32 0 0 11 -32 0 0 -11zm42 -21l-53 0 0 -11 53 0 0 11zm0 -32l-42 0 0 -11 11 0 0 -21 -11 0 0 -11 42 0 0 11 -21 0 0 21 21 0 0 11zm-53 -11l11 0 0 -21 -11 0 0 21zm42 -63l0 -21 11 0 0 32 -53 0 0 -11 42 0zm-32 -74l0 21 11 0 0 -21 10 0 0 21 11 0 0 -21 11 0 0 32 -53 0 0 -32 11 0zm42 -21l-53 0 0 -32 11 0 0 21 11 0 0 -21 10 0 0 21 21 0 0 11zm-42 -32l0 -11 11 0 0 11 -11 0zm21 11l0 -11 11 0 0 11 -11 0zm11 -11l0 -11 11 0 0 11 -11 0zm0 0z"/>
  <path class="fil1" d="M4850 6351l0 -11 11 0 0 11 -11 0zm42 -11l-53 0 0 -10 53 0 0 10zm0 -21l-53 0 0 -11 53 0 0 11zm-42 11l0 -11 11 0 0 11 -11 0zm0 -21l0 -11 11 0 0 11 -11 0zm21 42l0 -11 11 0 0 11 -11 0zm0 -21l0 -11 11 0 0 11 -11 0zm0 -21l0 -11 11 0 0 11 -11 0zm-21 -32l0 -11 11 0 0 11 -11 0zm42 -11l-53 0 0 -10 53 0 0 10zm0 -21l-53 0 0 -11 53 0 0 11zm-42 11l0 -11 11 0 0 11 -11 0zm0 -21l0 -11 11 0 0 11 -11 0zm21 42l0 -11 11 0 0 11 -11 0zm0 -21l0 -11 11 0 0 11 -11 0zm0 -21l0 -11 11 0 0 11 -11 0zm-21 -32l0 -11 11 0 0 11 -11 0zm42 -11l-53 0 0 -10 53 0 0 10zm0 -21l-53 0 0 -11 53 0 0 11zm-42 11l0 -11 11 0 0 11 -11 0zm0 -21l0 -11 11 0 0 11 -11 0zm21 42l0 -11 11 0 0 11 -11 0zm0 -21l0 -11 11 0 0 11 -11 0zm0 -21l0 -11 11 0 0 11 -11 0zm0 0z"/>
  <path class="fil1" d="M5003 6717l-53 0 0 -11 53 0 0 11zm0 -42l-53 0 0 -11 53 0 0 11zm-42 11l0 -11 11 0 0 11 -11 0zm11 11l0 -11 10 0 0 11 -10 0zm-11 10l0 -10 11 0 0 10 -11 0zm42 -64l-42 0 0 -11 11 0 0 -21 -11 0 0 -11 42 0 0 11 -21 0 0 21 21 0 0 11zm-53 -11l11 0 0 -21 -11 0 0 21zm53 -53l-53 0 0 -32 11 0 0 21 32 0 0 -21 11 0 0 32zm-42 -42l32 0 0 11 -32 0 0 -11zm0 -53l0 21 11 0 0 -21 10 0 0 21 11 0 0 -21 11 0 0 32 -53 0 0 -32 11 0zm42 -64l-53 0 0 -11 53 0 0 11zm0 -32l-53 0 0 -11 53 0 0 11zm0 -42l-53 0 0 -11 53 0 0 11zm-21 11l0 -11 11 0 0 11 -11 0zm-10 11l0 -11 10 0 0 11 -10 0zm-11 10l0 -10 11 0 0 10 -11 0zm42 -106l-53 0 0 -11 53 0 0 11zm0 -42l-53 0 0 -11 53 0 0 11zm-21 11l0 -11 11 0 0 11 -11 0zm-10 11l0 -11 10 0 0 11 -10 0zm-11 10l0 -10 11 0 0 10 -11 0zm0 -95l0 21 11 0 0 -21 10 0 0 21 11 0 0 -21 11 0 0 32 -53 0 0 -32 11 0zm32 -21l-42 0 0 -11 42 0 0 11zm0 -32l0 -11 11 0 0 11 -11 0zm0 21l0 -10 11 0 0 10 -11 0zm0 -32l-42 0 0 -11 42 0 0 11zm0 21l-32 0 0 -11 32 0 0 11zm-32 -127l0 -11 11 0 0 11 -11 0zm0 21l0 -10 11 0 0 10 -11 0zm42 -10l-32 0 0 -11 32 0 0 11zm-53 21l0 -11 11 0 0 11 -11 0zm0 -42l0 -11 11 0 0 11 -11 0zm11 -63l0 21 -11 0 0 -21 11 0zm32 21l0 11 -32 0 0 -11 32 0zm11 -21l0 21 -11 0 0 -21 11 0zm0 21l0 -21zm-11 -11l0 11 -32 0 0 -11 32 0zm11 -21l-53 0 0 -32 11 0 0 21 11 0 0 -21 10 0 0 21 21 0 0 11zm-42 -32l0 -11 11 0 0 11 -11 0zm21 11l0 -11 11 0 0 11 -11 0zm11 -11l0 -11 11 0 0 11 -11 0zm-11 -43l21 0 0 11 -53 0 0 -11 21 0 0 -10 10 0 0 10zm-21 -10l0 -11 11 0 0 11 -11 0zm-11 -11l0 -11 11 0 0 11 -11 0zm32 11l0 -11 11 0 0 11 -11 0zm11 -11l0 -11 11 0 0 11 -11 0zm0 0z"/>
  <g>
   <path class="fil2" d="M363 6245l-3 0 0 0 0 -5 0 -5 -1 -5 -1 -5 -1 -5 -1 -5 -2 -5 -2 -4 -2 -4 -2 -4 -2 -4 -3 -4 -3 -4 -3 -4 -3 -4 -3 -3 -3 -3 -4 -3 -4 -3 -4 -3 -4 -3 -4 -2 -4 -2 -4 -2 -4 -2 -5 -2 -5 -1 -5 -1 -5 -1 -5 -1 -5 0 -5 0 0 -3 5 0 5 0 5 1 5 1 5 1 5 1 5 2 5 2 4 2 4 2 4 2 4 3 4 3 4 3 4 3 4 3 3 4 3 4 3 4 3 4 3 4 2 4 2 4 2 4 2 5 2 5 1 5 1 5 1 5 1 5 0 5 0 5 0 0zm-101 101l0 -3 0 0 5 0 5 0 5 -1 5 -1 5 -1 5 -1 5 -2 4 -2 4 -2 4 -2 4 -2 4 -3 4 -3 4 -3 4 -3 3 -3 3 -3 3 -4 3 -4 3 -4 3 -4 2 -4 2 -4 2 -4 2 -4 2 -5 1 -5 1 -5 1 -5 1 -5 0 -5 0 -5 3 0 0 5 0 5 -1 5 -1 5 -1 5 -1 5 -2 5 -2 5 -2 4 -2 4 -2 4 -3 4 -3 4 -3 4 -3 4 -3 4 -4 3 -4 3 -4 3 -4 3 -4 3 -4 2 -4 2 -4 2 -5 2 -5 2 -5 1 -5 1 -5 1 -5 1 -5 0 -5 0 0 0zm-101 -101l3 0 0 0 0 5 0 5 1 5 1 5 1 5 1 5 2 5 2 4 2 4 2 4 2 4 3 4 3 4 3 4 3 4 3 3 3 3 4 3 4 3 4 3 4 3 4 2 4 2 4 2 4 2 5 2 5 1 5 1 5 1 5 1 5 0 5 0 0 3 -5 0 -5 0 -5 -1 -5 -1 -5 -1 -5 -1 -5 -2 -5 -2 -4 -2 -4 -2 -4 -2 -4 -3 -4 -3 -4 -3 -4 -3 -4 -3 -3 -4 -3 -4 -3 -4 -3 -4 -3 -4 -2 -4 -2 -4 -2 -4 -2 -5 -2 -5 -1 -5 -1 -5 -1 -5 -1 -5 0 -5 0 -5 0 0zm101 -101l0 3 0 0 -5 0 -5 0 -5 1 -5 1 -5 1 -5 1 -5 2 -4 2 -4 2 -4 2 -4 2 -4 3 -4 3 -4 3 -4 3 -3 3 -3 3 -3 4 -3 4 -3 4 -3 4 -2 4 -2 4 -2 4 -2 4 -2 5 -1 5 -1 5 -1 5 -1 5 0 5 0 5 -3 0 0 -5 0 -5 1 -5 1 -5 1 -5 1 -5 2 -5 2 -5 2 -4 2 -4 2 -4 3 -4 3 -4 3 -4 3 -4 3 -4 4 -3 4 -3 4 -3 4 -3 4 -3 4 -2 4 -2 4 -2 5 -2 5 -2 5 -1 5 -1 5 -1 5 -1 5 0 5 0 0 0z"/>
  </g>
 </g>
</svg>
